<svg width="871" height="209" viewBox="0 0 871 209" fill="none" xmlns="http://www.w3.org/2000/svg">
<path fill-rule="evenodd" clip-rule="evenodd" d="M702.863 133.041C692.041 126.205 694.966 111.194 703.829 104.285C700.497 126.953 728.556 117.317 739.716 113.353C740.128 113.206 740.624 113.045 741.175 112.865C745.098 111.588 751.825 109.397 751.179 105.191C749.314 93.0385 734.865 94.98 721.772 96.7392C714.635 97.6981 707.901 98.6029 703.829 97.1413C665.742 83.4713 684.37 34.6385 704.035 13.8706C722.151 -5.26181 755.289 -0.240519 778.218 3.58437C786.102 4.89977 799.006 9.04352 805.508 12.5393C817.587 19.0331 821.585 26.946 822.389 35.6815C822.906 41.2979 818.359 47.8616 814.973 52.7484C814.531 53.387 814.109 53.9969 813.72 54.5723C807.465 63.8276 799.741 71.4691 792.002 79.1241C786.72 84.3496 781.432 89.5812 776.6 95.3367C777.097 94.9458 777.593 94.5553 778.089 94.165C795.463 80.4937 812.459 67.1202 825.097 48.6068C834.987 34.1186 840.103 24.4276 825.447 12.8137C828.99 11.0469 832.425 9.478 836.412 9.04352C863.872 6.0538 849.754 40.8755 842.782 52.5838C842.316 53.3677 841.73 54.2115 841.115 55.0985C838.915 58.272 836.331 61.9984 837.407 65.5091C839.286 71.6345 847.055 76.2365 854.538 80.6698C863.133 85.7612 871.352 90.63 869.843 97.3282C868.098 105.071 860.539 111.582 854.438 116.836C853.722 117.453 853.026 118.052 852.362 118.634C842.116 127.615 831.311 134.843 820.358 142.169C815.095 145.689 809.798 149.232 804.513 153.003C810.224 151.047 815.753 148.573 821.27 146.104C826.934 143.569 832.584 141.04 838.406 139.084C838.248 150.165 832.939 156.346 827.068 163.182C824.523 166.144 821.874 169.229 819.492 172.888C817.129 176.518 815.333 180.854 813.536 185.191C808.759 196.721 803.979 208.257 788.563 206.548C763.279 203.745 763.687 171.335 763.929 152.175C763.947 150.71 763.965 149.323 763.97 148.032C763.977 146.186 762.892 143.976 761.806 141.761C760.376 138.845 758.942 135.922 759.99 133.813C761.781 130.213 768.465 126.986 774.247 124.195C777.176 122.781 779.872 121.479 781.585 120.297C794.403 111.448 803.918 100.464 813.484 88.3769C809.902 90.9571 806.338 93.5848 802.769 96.2153C779.558 113.326 756.185 130.556 726.757 135.611C719.47 136.863 709.319 137.119 702.863 133.041ZM688.293 64.8495C689.134 38.8363 707.476 -8.35675 774.11 10.9769C749.206 6.9491 697.177 12.0846 688.293 64.8495Z" fill="url(#paint0_linear)"/>
<path d="M35.5881 126.92C39.9353 126.92 43.5088 127.546 46.3087 128.799C49.1086 129.978 52.1664 131.746 55.482 134.104C56.4399 134.841 57.1767 135.209 57.6925 135.209C59.0924 135.209 60.0134 132.962 60.4555 128.467H62.9975C62.7028 133.257 62.5555 141.73 62.5555 153.887H60.0134C59.3503 149.982 58.6503 146.777 57.9135 144.272C57.1767 141.693 56.0347 139.446 54.4874 137.53C52.3506 134.878 49.5507 132.778 46.0877 131.23C42.6983 129.683 39.1248 128.909 35.367 128.909C30.5041 128.909 26.2306 130.493 22.5465 133.662C18.8624 136.83 16.0257 141.361 14.0363 147.256C12.0469 153.077 11.0522 159.892 11.0522 167.703C11.0522 180.965 13.1521 190.691 17.352 196.88C21.6255 202.996 28.2936 206.054 37.3564 206.054C41.7773 206.054 45.6087 204.912 48.8507 202.627C50.177 201.743 51.0243 200.896 51.3927 200.085C51.8348 199.201 52.0559 198.022 52.0559 196.549V185.939C52.0559 182.844 51.7611 180.597 51.1717 179.197C50.5822 177.797 49.5507 176.839 48.0771 176.323C46.6034 175.807 44.2088 175.476 40.8931 175.329V173.118C44.7246 173.339 49.9191 173.45 56.4767 173.45C61.4871 173.45 65.3185 173.339 67.971 173.118V175.329C66.2764 175.476 65.0238 175.771 64.2133 176.213C63.4765 176.655 62.9607 177.502 62.666 178.755C62.4449 180.007 62.3344 182.034 62.3344 184.833V206.717H60.124C60.0503 205.243 59.7556 203.843 59.2398 202.517C58.724 201.117 58.024 200.417 57.1399 200.417C56.6978 200.417 56.2557 200.528 55.8136 200.749C55.3715 200.97 54.5979 201.485 53.4926 202.296C50.9138 204.285 48.2244 205.759 45.4245 206.717C42.6983 207.748 39.6406 208.264 36.2512 208.264C28.662 208.264 22.1412 206.717 16.6888 203.622C11.3101 200.454 7.18393 195.922 4.31036 190.028C1.43679 184.133 0 177.097 0 168.918C0 160.519 1.51047 153.15 4.5314 146.814C7.62602 140.404 11.8627 135.504 17.2414 132.114C22.6202 128.651 28.7357 126.92 35.5881 126.92Z" fill="#5C5C5C"/>
<path d="M112.746 126.92C119.746 126.92 125.862 128.504 131.093 131.672C136.398 134.841 140.487 139.446 143.361 145.488C146.308 151.456 147.782 158.603 147.782 166.929C147.782 175.034 146.271 182.218 143.25 188.481C140.303 194.744 136.14 199.607 130.761 203.07C125.456 206.533 119.414 208.264 112.636 208.264C105.636 208.264 99.4836 206.68 94.1786 203.512C88.9472 200.343 84.8579 195.775 81.9106 189.807C79.037 183.765 77.6003 176.581 77.6003 168.255C77.6003 160.15 79.0739 152.966 82.0211 146.703C85.0421 140.44 89.2051 135.577 94.5101 132.114C99.8889 128.651 105.968 126.92 112.746 126.92ZM112.304 128.909C107.589 128.909 103.426 130.567 99.8152 133.883C96.2785 137.125 93.5154 141.693 91.526 147.588C89.6103 153.482 88.6525 160.224 88.6525 167.813C88.6525 175.476 89.7208 182.218 91.8576 188.039C94.068 193.859 97.0153 198.354 100.699 201.522C104.383 204.691 108.51 206.275 113.078 206.275C117.793 206.275 121.92 204.654 125.456 201.412C129.067 198.096 131.83 193.491 133.745 187.596C135.735 181.702 136.73 174.96 136.73 167.371C136.73 159.708 135.624 152.966 133.414 147.145C131.277 141.325 128.367 136.83 124.683 133.662C120.999 130.493 116.872 128.909 112.304 128.909Z" fill="#5C5C5C"/>
<path d="M195.219 126.92C199.566 126.92 203.14 127.546 205.94 128.799C208.739 129.978 211.797 131.746 215.113 134.104C216.071 134.841 216.808 135.209 217.323 135.209C218.723 135.209 219.644 132.962 220.086 128.467H222.628C222.334 133.257 222.186 141.73 222.186 153.887H219.644C218.981 149.982 218.281 146.777 217.544 144.272C216.808 141.693 215.666 139.446 214.118 137.53C211.981 134.878 209.182 132.778 205.719 131.23C202.329 129.683 198.756 128.909 194.998 128.909C190.135 128.909 185.861 130.493 182.177 133.662C178.493 136.83 175.657 141.361 173.667 147.256C171.678 153.077 170.683 159.892 170.683 167.703C170.683 180.965 172.783 190.691 176.983 196.88C181.256 202.996 187.925 206.054 196.987 206.054C201.408 206.054 205.24 204.912 208.482 202.627C209.808 201.743 210.655 200.896 211.024 200.085C211.466 199.201 211.687 198.022 211.687 196.549V185.939C211.687 182.844 211.392 180.597 210.803 179.197C210.213 177.797 209.182 176.839 207.708 176.323C206.234 175.807 203.84 175.476 200.524 175.329V173.118C204.355 173.339 209.55 173.45 216.108 173.45C221.118 173.45 224.949 173.339 227.602 173.118V175.329C225.907 175.476 224.655 175.771 223.844 176.213C223.107 176.655 222.592 177.502 222.297 178.755C222.076 180.007 221.965 182.034 221.965 184.833V206.717H219.755C219.681 205.243 219.386 203.843 218.871 202.517C218.355 201.117 217.655 200.417 216.771 200.417C216.329 200.417 215.887 200.528 215.445 200.749C215.002 200.97 214.229 201.485 213.124 202.296C210.545 204.285 207.855 205.759 205.055 206.717C202.329 207.748 199.271 208.264 195.882 208.264C188.293 208.264 181.772 206.717 176.32 203.622C170.941 200.454 166.815 195.922 163.941 190.028C161.068 184.133 159.631 177.097 159.631 168.918C159.631 160.519 161.141 153.15 164.162 146.814C167.257 140.404 171.494 135.504 176.872 132.114C182.251 128.651 188.367 126.92 195.219 126.92Z" fill="#5C5C5C"/>
<path d="M292.603 192.57C292.603 196.77 292.861 201.485 293.376 206.717C288.366 206.496 279.929 206.385 268.067 206.385C253.92 206.385 243.236 206.496 236.015 206.717V204.506C238.668 204.359 240.584 204.064 241.763 203.622C243.015 203.18 243.862 202.333 244.305 201.08C244.747 199.828 244.968 197.801 244.968 195.001V140.183C244.968 137.383 244.747 135.356 244.305 134.104C243.862 132.851 243.015 132.004 241.763 131.562C240.584 131.12 238.668 130.825 236.015 130.678V128.467C243.236 128.688 253.92 128.799 268.067 128.799C278.898 128.799 286.598 128.688 291.166 128.467C290.65 133.33 290.392 137.677 290.392 141.509C290.392 144.382 290.503 146.667 290.724 148.361H288.182C287.666 143.572 287.003 140.035 286.192 137.751C285.382 135.393 284.019 133.699 282.103 132.667C280.187 131.562 277.277 131.009 273.372 131.009H264.198C261.546 131.009 259.593 131.23 258.341 131.672C257.162 132.041 256.351 132.851 255.909 134.104C255.467 135.356 255.246 137.383 255.246 140.183V166.266H262.541C265.12 166.266 267.109 165.676 268.509 164.497C269.909 163.245 270.83 161.808 271.272 160.187C271.788 158.492 272.193 156.392 272.488 153.887L272.819 151.677H275.361C275.14 154.771 275.03 158.234 275.03 162.066V167.371C275.03 171.129 275.251 176.36 275.693 183.065H273.151C273.077 182.549 272.856 180.781 272.488 177.76C272.119 174.665 271.088 172.344 269.393 170.797C267.772 169.25 265.488 168.476 262.541 168.476H255.246V195.001C255.246 197.801 255.467 199.828 255.909 201.08C256.351 202.333 257.162 203.18 258.341 203.622C259.593 203.991 261.546 204.175 264.198 204.175H272.267C276.835 204.175 280.298 203.585 282.656 202.406C285.087 201.154 286.855 199.201 287.961 196.549C289.066 193.823 289.876 189.844 290.392 184.612H292.934C292.713 186.602 292.603 189.254 292.603 192.57Z" fill="#5C5C5C"/>
<path d="M388.912 197.433C390.681 202.001 393.223 204.359 396.538 204.506V206.717C393.591 206.496 389.649 206.385 384.712 206.385C378.376 206.385 373.66 206.496 370.566 206.717V204.506C373.366 204.359 375.355 204.027 376.534 203.512C377.786 202.922 378.413 201.891 378.413 200.417C378.413 199.164 377.971 197.433 377.086 195.223L370.345 177.097H343.598L339.067 188.812C337.593 192.791 336.856 195.812 336.856 197.875C336.856 200.159 337.63 201.817 339.177 202.849C340.798 203.88 343.23 204.433 346.472 204.506V206.717C342.272 206.496 338.035 206.385 333.762 206.385C330.446 206.385 327.683 206.496 325.473 206.717V204.506C329.157 203.622 332.067 200.417 334.204 194.891L360.177 127.915H361.945L388.912 197.433ZM369.46 174.886L357.082 141.84L344.482 174.886H369.46Z" fill="url(#paint1_linear)"/>
<path d="M453.496 128.467C452.98 133.699 452.722 138.414 452.722 142.614C452.722 146.298 452.833 149.319 453.054 151.677H450.512C449.922 146.003 449.186 141.804 448.301 139.077C447.417 136.277 445.87 134.251 443.66 132.999C441.449 131.672 438.06 131.009 433.492 131.009H426.529C423.876 131.009 421.924 131.23 420.671 131.672C419.492 132.041 418.682 132.851 418.24 134.104C417.797 135.356 417.576 137.383 417.576 140.183V167.371H425.644C428.223 167.371 430.213 166.782 431.613 165.603C433.013 164.35 433.934 162.913 434.376 161.292C434.891 159.598 435.297 157.498 435.591 154.993L435.923 152.782H438.465C438.244 155.877 438.133 159.34 438.133 163.171V168.476C438.133 172.234 438.354 177.465 438.797 184.17H436.255C436.181 183.655 435.96 181.886 435.591 178.865C435.223 175.771 434.191 173.45 432.497 171.902C430.876 170.355 428.592 169.581 425.644 169.581H417.576V195.001C417.576 197.801 417.871 199.828 418.461 201.08C419.05 202.333 420.082 203.18 421.555 203.622C423.029 204.064 425.423 204.359 428.739 204.506V206.717C424.908 206.496 419.492 206.385 412.492 206.385C406.156 206.385 401.44 206.496 398.346 206.717V204.506C400.998 204.359 402.914 204.064 404.093 203.622C405.345 203.18 406.193 202.333 406.635 201.08C407.077 199.828 407.298 197.801 407.298 195.001V140.183C407.298 137.383 407.077 135.356 406.635 134.104C406.193 132.851 405.345 132.004 404.093 131.562C402.914 131.12 400.998 130.825 398.346 130.678V128.467C405.566 128.688 416.25 128.799 430.397 128.799C441.228 128.799 448.928 128.688 453.496 128.467Z" fill="url(#paint2_linear)"/>
<path d="M529.572 201.191C527.878 203.696 526.183 205.501 524.488 206.606C522.794 207.711 520.546 208.264 517.746 208.264C514.725 208.264 512.22 207.38 510.231 205.612C508.315 203.843 506.878 200.749 505.921 196.328L503.489 185.276C502.605 181.444 501.758 178.497 500.947 176.434C500.21 174.371 499.068 172.713 497.521 171.46C495.974 170.208 493.8 169.581 491 169.581H480.501V195.001C480.501 197.801 480.722 199.828 481.164 201.08C481.606 202.333 482.416 203.18 483.595 203.622C484.848 204.064 486.8 204.359 489.453 204.506V206.717C486.063 206.496 481.385 206.385 475.417 206.385C469.08 206.385 464.364 206.496 461.27 206.717V204.506C463.922 204.359 465.838 204.064 467.017 203.622C468.269 203.18 469.117 202.333 469.559 201.08C470.001 199.828 470.222 197.801 470.222 195.001V140.183C470.222 137.383 470.001 135.356 469.559 134.104C469.117 132.851 468.269 132.004 467.017 131.562C465.838 131.12 463.922 130.825 461.27 130.678V128.467C464.364 128.688 468.859 128.799 474.753 128.799L486.69 128.688C488.09 128.615 489.674 128.578 491.442 128.578C499.989 128.578 506.547 130.383 511.115 133.993C515.757 137.53 518.078 142.135 518.078 147.809C518.078 150.682 517.378 153.593 515.978 156.54C514.652 159.413 512.368 162.029 509.126 164.387C505.957 166.671 501.794 168.218 496.637 169.029L497.963 169.25C502.826 170.06 506.363 171.534 508.573 173.671C510.784 175.807 512.405 179.197 513.436 183.839L516.199 195.112C516.936 198.501 517.71 200.859 518.52 202.185C519.331 203.512 520.436 204.175 521.836 204.175C523.088 204.175 524.12 203.843 524.93 203.18C525.815 202.517 526.809 201.449 527.914 199.975L529.572 201.191ZM488.679 130.678C486.395 130.678 484.663 130.936 483.485 131.451C482.379 131.967 481.606 132.888 481.164 134.214C480.722 135.541 480.501 137.53 480.501 140.183V167.371H487.905C495.2 167.371 500.21 165.75 502.936 162.508C505.663 159.266 507.026 154.771 507.026 149.024C507.026 142.982 505.589 138.414 502.715 135.32C499.842 132.225 495.163 130.678 488.679 130.678Z" fill="url(#paint3_linear)"/>
<path d="M561.119 130.678C558.467 130.825 556.514 131.12 555.262 131.562C554.083 132.004 553.272 132.851 552.83 134.104C552.388 135.356 552.167 137.383 552.167 140.183V195.001C552.167 197.801 552.388 199.828 552.83 201.08C553.272 202.333 554.083 203.18 555.262 203.622C556.514 204.064 558.467 204.359 561.119 204.506V206.717C557.73 206.496 553.051 206.385 547.083 206.385C540.747 206.385 536.031 206.496 532.936 206.717V204.506C535.589 204.359 537.505 204.064 538.683 203.622C539.936 203.18 540.783 202.333 541.225 201.08C541.668 199.828 541.889 197.801 541.889 195.001V140.183C541.889 137.383 541.668 135.356 541.225 134.104C540.783 132.851 539.936 132.004 538.683 131.562C537.505 131.12 535.589 130.825 532.936 130.678V128.467C536.031 128.688 540.747 128.799 547.083 128.799C552.978 128.799 557.656 128.688 561.119 128.467V130.678Z" fill="url(#paint4_linear)"/>
<path d="M605.887 126.92C610.308 126.92 614.065 127.546 617.16 128.799C620.255 130.051 623.276 131.82 626.223 134.104C627.033 134.767 627.733 135.099 628.323 135.099C629.796 135.099 630.754 132.888 631.196 128.467H633.738C633.444 133.257 633.296 141.73 633.296 153.887H630.754C629.944 149.098 629.207 145.672 628.544 143.609C627.881 141.472 626.776 139.446 625.228 137.53C623.018 134.656 620.181 132.52 616.718 131.12C613.329 129.646 609.645 128.909 605.666 128.909C600.877 128.909 596.677 130.493 593.066 133.662C589.53 136.83 586.767 141.361 584.777 147.256C582.788 153.077 581.793 159.929 581.793 167.813C581.793 175.844 582.861 182.734 584.998 188.481C587.135 194.228 590.082 198.612 593.84 201.633C597.671 204.58 601.982 206.054 606.771 206.054C610.455 206.054 614.029 205.354 617.492 203.954C620.955 202.554 623.681 200.454 625.67 197.654C627.144 195.591 628.212 193.38 628.875 191.023C629.539 188.665 630.165 185.054 630.754 180.192H633.296C633.296 192.865 633.444 201.706 633.738 206.717H631.196C630.975 204.359 630.644 202.701 630.202 201.743C629.833 200.712 629.281 200.196 628.544 200.196C627.954 200.196 627.181 200.491 626.223 201.08C622.907 203.438 619.739 205.243 616.718 206.496C613.697 207.675 610.05 208.264 605.776 208.264C598.777 208.264 592.624 206.68 587.319 203.512C582.088 200.343 577.998 195.775 575.051 189.807C572.178 183.765 570.741 176.581 570.741 168.255C570.741 160.15 572.214 152.966 575.162 146.703C578.183 140.44 582.346 135.577 587.651 132.114C593.029 128.651 599.108 126.92 605.887 126.92Z" fill="url(#paint5_linear)"/>
<path d="M703.641 197.433C705.409 202.001 707.951 204.359 711.267 204.506V206.717C708.32 206.496 704.378 206.385 699.441 206.385C693.105 206.385 688.389 206.496 685.294 206.717V204.506C688.094 204.359 690.084 204.027 691.263 203.512C692.515 202.922 693.141 201.891 693.141 200.417C693.141 199.164 692.699 197.433 691.815 195.223L685.073 177.097H658.327L653.796 188.812C652.322 192.791 651.585 195.812 651.585 197.875C651.585 200.159 652.359 201.817 653.906 202.849C655.527 203.88 657.959 204.433 661.201 204.506V206.717C657.001 206.496 652.764 206.385 648.491 206.385C645.175 206.385 642.412 206.496 640.201 206.717V204.506C643.885 203.622 646.796 200.417 648.933 194.891L674.905 127.915H676.674L703.641 197.433ZM684.189 174.886L671.811 141.84L659.211 174.886H684.189Z" fill="url(#paint6_linear)"/>
<defs>
<linearGradient id="paint0_linear" x1="867.575" y1="4.99919" x2="653.26" y2="62.538" gradientUnits="userSpaceOnUse">
<stop stop-color="#FFC000"/>
<stop offset="1" stop-color="#FF8A00"/>
</linearGradient>
<linearGradient id="paint1_linear" x1="706.252" y1="128.887" x2="546.894" y2="351.65" gradientUnits="userSpaceOnUse">
<stop stop-color="#FFC000"/>
<stop offset="1" stop-color="#FF8A00"/>
</linearGradient>
<linearGradient id="paint2_linear" x1="706.252" y1="128.887" x2="546.894" y2="351.65" gradientUnits="userSpaceOnUse">
<stop stop-color="#FFC000"/>
<stop offset="1" stop-color="#FF8A00"/>
</linearGradient>
<linearGradient id="paint3_linear" x1="706.252" y1="128.887" x2="546.894" y2="351.65" gradientUnits="userSpaceOnUse">
<stop stop-color="#FFC000"/>
<stop offset="1" stop-color="#FF8A00"/>
</linearGradient>
<linearGradient id="paint4_linear" x1="706.252" y1="128.887" x2="546.894" y2="351.65" gradientUnits="userSpaceOnUse">
<stop stop-color="#FFC000"/>
<stop offset="1" stop-color="#FF8A00"/>
</linearGradient>
<linearGradient id="paint5_linear" x1="706.252" y1="128.887" x2="546.894" y2="351.65" gradientUnits="userSpaceOnUse">
<stop stop-color="#FFC000"/>
<stop offset="1" stop-color="#FF8A00"/>
</linearGradient>
<linearGradient id="paint6_linear" x1="706.252" y1="128.887" x2="546.894" y2="351.65" gradientUnits="userSpaceOnUse">
<stop stop-color="#FFC000"/>
<stop offset="1" stop-color="#FF8A00"/>
</linearGradient>
</defs>
</svg>
